<svg width="375" height="58" viewBox="0 0 375 58" fill="none" xmlns="http://www.w3.org/2000/svg">
<g clip-path="url(#clip0)">
<path d="M40.27 57.08C39.86 56.16 37.77 51.5 37.7 51.08C37.7 51.08 35.7 45.08 34.79 44.16C34.79 44.16 33.3 42.25 32.84 42.98C32.84 42.98 32.25 43.23 32.92 45.46L36 57.11H40.26" fill="#FFC62C"/>
<path d="M70.5 16.46C65.6 2.6 55.5 0.739996 55.5 0.739996C41.26 -1.91 35.34 6.56 35.34 6.56C30.25 12.2 25.13 9 25.13 9C24.6227 8.82142 24.1882 8.48085 23.8936 8.03085C23.599 7.58085 23.4607 7.04641 23.5 6.51C24 5.74 27.41 5.05 27.41 5.05C29.09 4.75 33.68 3.98 33.68 3.98C39 2.83 39.19 0.0799963 39.19 0.0799963C38.43 -3.70294e-06 32.61 -3.74491e-06 32.61 -3.74491e-06C22.13 -0.0700037 13.4 9.42 13.4 9.42C-2.44 11.1 0.16 23.65 0.16 23.65C0.85 27.35 8.73 25.87 8.73 25.87C9.95941 25.5932 11.2442 25.7015 12.41 26.18C15.54 27.55 18.6 32 18.6 32C19.0808 32.5475 19.3826 33.2289 19.4648 33.9529C19.547 34.6769 19.4058 35.4086 19.06 36.05C18.51 37.64 14.06 45.69 14.06 45.69C12.374 48.5662 11.0856 51.6577 10.23 54.88C10 56.41 11.69 56.72 11.69 56.72C14.98 58.1 23.63 56.79 23.63 56.79H23.71C23.91 54.79 25.21 42.64 27.45 39.24C27.45 39.24 30.25 38.32 34.45 41.53C34.45 41.53 33.57 36.8 32.57 35.22C32.57 35.22 32.17 34.39 30.28 33.65C29.9216 33.5584 29.5477 33.5449 29.1837 33.6104C28.8196 33.676 28.4739 33.8191 28.17 34.03C27.9178 34.1196 27.6481 34.149 27.3825 34.116C27.1169 34.083 26.8627 33.9885 26.64 33.84C26.64 33.84 24.08 32.23 24.11 29.94C24.11 29.94 24 28.86 26.33 26.99C26.33 26.99 28.59 25.19 30.24 24.99C30.6975 25.3788 31.0493 25.8769 31.2626 26.4382C31.4759 26.9994 31.5438 27.6055 31.46 28.2H34.46C34.46 28.2 33.46 15.08 37.87 14.2C37.87 14.2 43.78 12.13 48.44 15.28C48.44 15.28 52.19 17.99 51.11 21.92C51.11 21.92 42.87 21.36 42.44 21.45C42.44 21.45 37.65 23.08 37.27 25.07C37.27 25.07 36.66 27.31 43.27 27.4C43.27 27.4 45.27 27.27 44.91 29.86C44.91 29.86 42.24 36.11 45.47 38.92C45.47 38.92 47.47 40.92 45.69 43.01C45.69 43.01 45.69 44.01 46.29 44.22C46.29 44.22 47.29 45.4 46.35 46.34C45.9565 46.6587 45.4868 46.8697 44.9872 46.9521C44.4875 47.0345 43.975 46.9855 43.5 46.81C43.5 46.81 38.72 44.81 37.99 44.67C37.99 44.67 40.74 53.41 42.32 56.99C48.18 56.91 53.14 56.8 53.14 56.8C51.92 55.5 49.14 47.92 49.14 47.92C53.73 48 54.3 46.31 54.3 46.31C54.6202 45.7864 54.8116 45.1944 54.8585 44.5825C54.9055 43.9706 54.8066 43.3563 54.57 42.79C56.33 37.59 56.87 29.7 56.87 29.7C56.6358 28.0682 56.0599 26.5041 55.18 25.11L56.71 23.2C56.9382 22.213 56.9382 21.187 56.71 20.2C69.57 19.36 70.49 16.38 70.49 16.38L70.5 16.46ZM31.08 21.02C31.08 21.02 27.24 20.45 22.56 24.83C22.56 24.83 20.63 23.13 26.56 18.64C27.8114 17.7458 29.2582 17.163 30.78 16.94C30.8666 18.2419 31.0843 19.5318 31.43 20.79C31.43 20.79 31.5 21.06 31.08 21.02ZM55.26 33.54C55.26 33.54 55.36 34.06 54.62 34.54C54.62 34.54 51.85 34.63 51.76 34.65C51.67 34.67 51.06 33.95 50.65 34.3C50.65 34.3 49.65 35.15 49.03 34.52C49.03 34.52 48.43 33.99 49.69 32.58C49.69 32.58 50.47 31.66 50.69 31.45C51.0488 30.9195 51.2688 30.3075 51.33 29.67C51.33 29.67 51.33 26.72 51.27 26.14C51.27 26.14 51.03 25.14 51.35 25.19C51.35 25.19 53.16 24.19 54.69 31.13C54.72 31.15 55.24 33.35 55.26 33.54Z" fill="#FFC62C"/>
<path d="M93.74 6.55C93.86 5.88 94.09 5.55 94.41 5.55C94.73 5.55 94.97 5.75 95.49 6.78L106.33 29.2L117.14 6.5C117.46 5.87 117.66 5.5 118.02 5.5C118.38 5.5 118.61 5.9 118.73 6.73L122.35 31.35C122.71 33.85 123.1 35.01 124.35 35.35C125.145 35.6065 125.975 35.7381 126.81 35.74C127.17 35.74 127.45 35.74 127.45 36.02C127.45 36.3 126.97 36.46 126.45 36.46C125.45 36.46 119.98 36.34 118.39 36.22C117.47 36.14 117.23 36.02 117.23 35.78C117.23 35.54 117.39 35.47 117.67 35.35C117.95 35.23 118.03 34.75 117.87 33.63L115.4 16.13H115.24L106.57 34.13C105.66 36 105.46 36.36 105.1 36.36C104.74 36.36 104.35 35.56 103.71 34.36C102.76 32.53 99.62 26.46 99.14 25.36C98.78 24.53 96.4 19.52 95.01 16.54H94.85L92.78 32.35C92.7024 32.967 92.6623 33.5881 92.66 34.21C92.66 34.97 93.18 35.32 93.86 35.48C94.4075 35.6083 94.9676 35.6754 95.53 35.68C95.84 35.68 96.12 35.76 96.12 35.96C96.12 36.32 95.76 36.4 95.12 36.4C93.5 36.44 91.71 36.35 91 36.35C90.29 36.35 88.33 36.47 87.06 36.47C86.66 36.47 86.35 36.39 86.35 36.03C86.35 35.83 86.58 35.75 86.98 35.75C87.38 35.7578 87.7796 35.7175 88.17 35.63C89.29 35.39 89.6 33.84 89.8 32.49L93.74 6.55Z" fill="#FFC62C"/>
<path d="M133.72 17.92C133.72 11.92 133.72 10.77 133.64 9.5C133.56 8.23 133.17 7.5 132.29 7.27C131.822 7.15539 131.342 7.10162 130.86 7.11C130.46 7.11 130.23 7.03 130.23 6.71C130.23 6.39 130.54 6.39 131.23 6.39C132.74 6.39 135.23 6.52 136.4 6.52C137.4 6.52 139.74 6.39 141.24 6.39C141.76 6.39 142.08 6.47 142.08 6.71C142.08 6.95 141.84 7.11 141.44 7.11C141.041 7.11471 140.642 7.15487 140.25 7.23C139.18 7.43 138.86 8.1 138.78 9.5C138.7 10.9 138.7 11.88 138.7 17.92V24.92C138.7 28.78 138.7 31.92 138.86 33.62C138.98 34.7 139.26 35.41 140.45 35.62C141.113 35.7134 141.781 35.7668 142.45 35.78C142.88 35.78 143.08 35.9 143.08 36.1C143.08 36.3 142.76 36.5 142.33 36.5C139.71 36.5 137.2 36.38 136.13 36.38C135.22 36.38 132.71 36.5 131.13 36.5C130.62 36.5 130.33 36.38 130.33 36.1C130.33 35.82 130.49 35.78 130.97 35.78C131.451 35.7803 131.931 35.7267 132.4 35.62C133.2 35.46 133.4 34.79 133.55 33.62C133.75 31.95 133.75 28.81 133.75 24.95V17.95" fill="#FFC62C"/>
<path d="M153.91 31.03C153.99 34.13 154.51 35.17 155.3 35.45C155.971 35.6494 156.67 35.7406 157.37 35.72C157.81 35.72 158.05 35.8 158.05 36.04C158.05 36.28 157.69 36.44 157.13 36.44C154.55 36.44 152.96 36.32 152.21 36.32C151.85 36.32 149.98 36.44 147.91 36.44C147.4 36.44 147.04 36.44 147.04 36.04C147.04 35.64 147.28 35.72 147.68 35.72C148.279 35.7298 148.878 35.6626 149.46 35.52C150.46 35.21 150.66 34.05 150.69 30.6L151.05 7.07C151.05 6.27 151.17 5.72 151.57 5.72C151.97 5.72 152.37 6.24 153.04 6.95C153.52 7.47 159.56 13.95 165.36 19.71C168.06 22.41 173.43 28.13 174.1 28.77H174.3L173.9 10.93C173.9 8.5 173.51 7.75 172.55 7.35C171.868 7.15435 171.158 7.07324 170.45 7.11C169.97 7.11 169.81 6.99 169.81 6.75C169.81 6.51 170.24 6.39 170.81 6.39C172.88 6.39 174.81 6.52 175.62 6.52C176.06 6.52 177.57 6.39 179.52 6.39C180.03 6.39 180.43 6.39 180.43 6.75C180.43 7.11 180.19 7.11 179.71 7.11C179.31 7.09463 178.909 7.13502 178.52 7.23C177.41 7.55 177.09 8.38 177.05 10.61L176.62 35.68C176.62 36.56 176.46 36.91 176.1 36.91C175.74 36.91 175.18 36.48 174.75 36.04C172.25 33.66 167.16 28.45 163.02 24.36C158.69 20.07 154.28 15.1 153.56 14.36H153.45L153.88 31.05" fill="#FFC62C"/>
<path d="M187.62 17.92C187.62 11.92 187.62 10.77 187.54 9.5C187.46 8.23 187.14 7.5 185.83 7.23C185.318 7.14046 184.799 7.10027 184.28 7.11C183.85 7.11 183.6 7.03 183.6 6.75C183.6 6.47 183.88 6.39 184.48 6.39C186.59 6.39 189.09 6.52 190.28 6.52C191.28 6.52 193.74 6.39 195.17 6.39C195.77 6.39 196.04 6.47 196.04 6.75C196.04 7.03 195.8 7.11 195.41 7.11C195.024 7.11186 194.638 7.15206 194.26 7.23C193.18 7.43 192.87 8.1 192.79 9.5C192.71 10.9 192.71 11.88 192.71 17.92V23.48C192.71 29.25 193.86 31.67 195.8 33.26C197.21 34.3989 198.99 34.9791 200.8 34.89C202.841 34.9192 204.812 34.1473 206.29 32.74C208.47 30.56 208.59 26.98 208.59 22.89V17.89C208.59 11.89 208.59 10.74 208.51 9.47C208.43 8.2 208.12 7.47 206.8 7.2C206.328 7.11475 205.849 7.07457 205.37 7.08C204.93 7.08 204.7 7 204.7 6.72C204.7 6.44 205 6.35 205.5 6.35C207.5 6.35 210.03 6.48 210.07 6.48C210.55 6.48 213.07 6.35 214.6 6.35C215.16 6.35 215.44 6.43 215.44 6.71C215.44 6.99 215.2 7.07 214.72 7.07C214.334 7.07288 213.949 7.11307 213.57 7.19C212.5 7.39 212.18 8.06 212.1 9.46C212.02 10.86 212.02 11.84 212.02 17.88V22.13C212.02 26.54 211.58 31.23 208.24 34.13C205.959 36.1017 203.012 37.1282 200 37C197.89 37 194.08 36.88 191.17 34.25C189.17 32.43 187.64 29.48 187.64 23.72V17.92" fill="#FFC62C"/>
<path d="M228.48 8.62L222.56 8.78C220.25 8.86 219.3 9.06 218.7 9.93C218.387 10.3595 218.15 10.8399 218 11.35C217.92 11.67 217.8 11.83 217.56 11.83C217.32 11.83 217.2 11.63 217.2 11.19C217.2 10.56 217.96 6.94 218.04 6.62C218.15 6.11 218.27 5.87 218.51 5.87C219.063 6.08402 219.636 6.24474 220.22 6.35C221.37 6.46 222.89 6.55 224.22 6.55H240C240.92 6.54444 241.839 6.47763 242.75 6.35C243.102 6.26228 243.46 6.19549 243.82 6.15C244.1 6.15 244.14 6.38 244.14 6.98C244.14 7.82 244.02 10.56 244.02 11.59C244.02 11.99 243.9 12.23 243.66 12.23C243.42 12.23 243.26 12.03 243.22 11.43V11C243.15 10 242.07 8.85 238.53 8.77L233.53 8.65V24.91C233.53 28.57 233.53 31.71 233.73 33.42C233.84 34.53 234.08 35.42 235.27 35.56C235.933 35.653 236.601 35.7064 237.27 35.72C237.71 35.72 237.91 35.84 237.91 36.04C237.91 36.24 237.59 36.44 237.15 36.44C234.53 36.44 232.03 36.32 230.91 36.32C230 36.32 227.5 36.44 225.91 36.44C225.39 36.44 225.11 36.32 225.11 36.04C225.11 35.76 225.27 35.72 225.75 35.72C226.231 35.7198 226.711 35.6661 227.18 35.56C227.97 35.4 228.18 34.56 228.33 33.38C228.53 31.71 228.53 28.57 228.53 24.91V8.62" fill="#FFC62C"/>
<path d="M251.41 17.92C251.41 11.92 251.41 10.77 251.33 9.5C251.25 8.23 250.94 7.5 249.62 7.23C249.108 7.13977 248.589 7.09958 248.07 7.11C247.64 7.11 247.4 7.03 247.4 6.75C247.4 6.47 247.68 6.39 248.27 6.39C249.35 6.39 250.5 6.39 251.49 6.39C252.48 6.39 253.44 6.48 253.99 6.48C255.27 6.48 263.17 6.48 263.93 6.48C264.504 6.43279 265.074 6.35602 265.64 6.25C265.845 6.17914 266.056 6.12561 266.27 6.09C266.48 6.09 266.51 6.25 266.51 6.44C266.51 6.63 266.32 7.2 266.2 9.03C266.2 9.43 266.08 11.17 266 11.65C266 11.85 265.88 12.09 265.6 12.09C265.32 12.09 265.24 11.89 265.24 11.53C265.242 11.044 265.164 10.5609 265.01 10.1C264.73 9.39 264.33 8.91 262.34 8.67C261.66 8.59 257.49 8.51 256.7 8.51C256.5 8.51 256.42 8.63 256.42 8.91V18.95C256.42 19.23 256.42 19.39 256.7 19.39C257.57 19.39 262.14 19.39 263.06 19.31C263.746 19.3545 264.424 19.1405 264.96 18.71C265.24 18.4 265.4 18.2 265.6 18.2C265.8 18.2 265.88 18.28 265.88 18.52C265.88 18.76 265.72 19.39 265.56 21.42C265.56 22.21 265.4 23.8 265.4 24.08C265.4 24.36 265.4 24.84 265.04 24.84C264.991 24.8466 264.941 24.8418 264.895 24.8261C264.848 24.8103 264.806 24.784 264.771 24.7492C264.736 24.7143 264.71 24.6719 264.694 24.6252C264.678 24.5785 264.673 24.5288 264.68 24.48C264.669 23.9967 264.619 23.5152 264.53 23.04C264.33 22.25 263.77 21.66 262.3 21.5C261.55 21.42 257.61 21.38 256.66 21.38C256.46 21.38 256.42 21.54 256.42 21.78V24.91C256.42 26.26 256.42 29.91 256.42 31.07C256.5 33.81 257.14 34.41 261.19 34.41C262.456 34.4869 263.725 34.3241 264.93 33.93C265.93 33.46 266.43 32.62 266.71 31C266.79 30.56 266.87 30.4 267.15 30.4C267.43 30.4 267.47 30.71 267.47 31.11C267.403 32.5906 267.229 34.0644 266.95 35.52C266.67 36.52 266.32 36.52 264.8 36.52C261.8 36.52 259.64 36.44 257.93 36.4C256.22 36.36 255 36.35 253.8 36.35C253.36 36.35 252.49 36.35 251.53 36.35C250.57 36.35 249.59 36.43 248.79 36.43C248.27 36.43 248 36.31 248 36.03C248 35.75 248.15 35.71 248.63 35.71C249.111 35.7103 249.591 35.6567 250.06 35.55C250.86 35.39 251.06 34.55 251.21 33.37C251.41 31.7 251.41 28.56 251.41 24.9V17.9" fill="#FFC62C"/>
<path d="M278 6.55C278.12 5.88 278.36 5.55 278.68 5.55C279 5.55 279.24 5.75 279.75 6.78L290.6 29.17L301.41 6.47C301.73 5.84 301.93 5.47 302.29 5.47C302.65 5.47 302.88 5.87 303 6.7L306.62 31.35C306.98 33.85 307.37 35.01 308.56 35.35C309.358 35.606 310.192 35.7375 311.03 35.74C311.39 35.74 311.66 35.74 311.66 36.02C311.66 36.3 311.19 36.46 310.66 36.46C309.66 36.46 304.18 36.34 302.59 36.22C301.68 36.14 301.44 36.02 301.44 35.78C301.44 35.54 301.6 35.47 301.88 35.35C302.16 35.23 302.24 34.75 302.07 33.63L299.69 16.15H299.53L290.87 34.15C289.96 36.02 289.76 36.38 289.4 36.38C289.04 36.38 288.64 35.58 288.01 34.38C287.01 32.55 283.92 26.48 283.44 25.38C283.08 24.55 280.69 19.54 279.31 16.56H279.15L277.05 32.35C276.972 32.967 276.932 33.5881 276.93 34.21C276.93 34.97 277.45 35.32 278.12 35.48C278.668 35.6073 279.228 35.6744 279.79 35.68C280.11 35.68 280.39 35.76 280.39 35.96C280.39 36.32 280.03 36.4 279.39 36.4C277.73 36.4 275.94 36.28 275.22 36.28C274.5 36.28 272.56 36.4 271.29 36.4C270.89 36.4 270.57 36.32 270.57 35.96C270.57 35.76 270.81 35.68 271.21 35.68C271.61 35.6878 272.01 35.6475 272.4 35.56C273.51 35.32 273.83 33.77 274.03 32.42L278 6.55Z" fill="#FFC62C"/>
<path d="M320 26.06C319.8 26.06 319.72 26.15 319.64 26.38L317.49 32.07C317.166 32.8403 316.967 33.6572 316.9 34.49C316.9 35.21 317.25 35.72 318.49 35.72H319.08C319.56 35.72 319.68 35.8 319.68 36.04C319.68 36.28 319.44 36.44 319 36.44C317.73 36.44 316 36.32 314.79 36.32C314.35 36.32 312.17 36.44 310.1 36.44C309.58 36.44 309.35 36.36 309.35 36.04C309.35 35.72 309.51 35.72 309.82 35.72C310.234 35.7142 310.648 35.6875 311.06 35.64C312.88 35.4 313.64 34.05 314.43 32.07L324.43 7.07C324.9 5.92 325.14 5.48 325.54 5.48C325.94 5.48 326.14 5.84 326.54 6.75C327.49 8.94 333.85 25.15 336.4 31.19C337.91 34.77 339.06 35.32 339.9 35.52C340.447 35.6271 341.003 35.6807 341.56 35.68C341.88 35.68 342.08 35.68 342.08 36C342.08 36.32 341.73 36.4 340.25 36.4C338.77 36.4 335.92 36.4 332.74 36.32C332.03 36.32 331.55 36.32 331.55 36C331.55 35.68 331.71 35.68 332.1 35.64C332.188 35.6104 332.269 35.5618 332.337 35.4976C332.404 35.4335 332.457 35.3554 332.492 35.2687C332.526 35.182 332.541 35.0889 332.535 34.9959C332.53 34.9028 332.504 34.8121 332.46 34.73L329.24 26.35C329.215 26.2639 329.163 26.1884 329.09 26.1359C329.018 26.0833 328.93 26.0566 328.84 26.06H320ZM328.1 24.06C328.3 24.06 328.34 23.94 328.3 23.82L324.72 14.01C324.72 13.85 324.64 13.65 324.53 13.65C324.42 13.65 324.33 13.85 324.29 14.01L320.63 23.78C320.63 23.94 320.63 24.06 320.79 24.06H328.1Z" fill="#FFC62C"/>
<path d="M348.43 31.03C348.52 34.13 349.03 35.17 349.83 35.45C350.498 35.6506 351.193 35.7417 351.89 35.72C352.33 35.72 352.57 35.8 352.57 36.04C352.57 36.28 352.21 36.44 351.65 36.44C349.07 36.44 347.48 36.32 346.73 36.32C346.37 36.32 344.5 36.44 342.43 36.44C341.92 36.44 341.56 36.44 341.56 36.04C341.56 35.64 341.8 35.72 342.2 35.72C342.799 35.7298 343.398 35.6626 343.98 35.52C344.98 35.21 345.17 34.05 345.22 30.6L345.57 7.07C345.57 6.27 345.69 5.72 346.09 5.72C346.49 5.72 346.89 6.24 347.56 6.95C348.04 7.47 354.08 13.95 359.88 19.71C362.58 22.41 367.95 28.13 368.62 28.77H368.82L368.42 10.93C368.42 8.5 368.03 7.75 367.07 7.35C366.388 7.15435 365.678 7.07324 364.97 7.11C364.49 7.11 364.33 6.99 364.33 6.75C364.33 6.51 364.77 6.39 365.33 6.39C367.4 6.39 369.33 6.52 370.14 6.52C370.58 6.52 372.09 6.39 374.04 6.39C374.55 6.39 374.95 6.39 374.95 6.75C374.95 7.11 374.71 7.11 374.24 7.11C373.836 7.09422 373.433 7.13461 373.04 7.23C372 7.55 371.64 8.35 371.6 10.61L371.17 35.68C371.17 36.56 371.01 36.91 370.65 36.91C370.29 36.91 369.74 36.48 369.3 36.04C366.79 33.66 361.71 28.45 357.58 24.36C353.24 20.07 348.83 15.1 348.12 14.36H348L348.43 31.05" fill="#FFC62C"/>
<path d="M87.09 44.78C87.0925 44.7198 87.1175 44.6627 87.1601 44.6201C87.2027 44.5775 87.2598 44.5525 87.32 44.55H88.43C88.491 44.55 88.5495 44.5742 88.5926 44.6174C88.6358 44.6605 88.66 44.719 88.66 44.78V47.95H92.57V44.78C92.57 44.719 92.5942 44.6605 92.6374 44.6174C92.6805 44.5742 92.739 44.55 92.8 44.55H93.9C93.9602 44.5525 94.0173 44.5775 94.0599 44.6201C94.1025 44.6627 94.1275 44.7198 94.13 44.78V52.72C94.1274 52.7793 94.1021 52.8352 94.0592 52.8762C94.0163 52.9172 93.9593 52.9401 93.9 52.94H92.8C92.7703 52.9414 92.7406 52.9367 92.7127 52.9262C92.6849 52.9158 92.6594 52.8998 92.6379 52.8792C92.6164 52.8586 92.5993 52.8339 92.5876 52.8066C92.576 52.7792 92.57 52.7498 92.57 52.72V49.41H88.66V52.72C88.66 52.7498 88.654 52.7792 88.6423 52.8066C88.6307 52.8339 88.6136 52.8586 88.5921 52.8792C88.5706 52.8998 88.5451 52.9158 88.5173 52.9262C88.4894 52.9367 88.4597 52.9414 88.43 52.94H87.32C87.2607 52.9401 87.2037 52.9172 87.1608 52.8762C87.1179 52.8352 87.0926 52.7793 87.09 52.72V44.78Z" fill="#FFC62C"/>
<path d="M100.3 44.78C100.302 44.7198 100.327 44.6627 100.37 44.6201C100.413 44.5775 100.47 44.5525 100.53 44.55H101.65C101.71 44.5525 101.767 44.5775 101.81 44.6201C101.853 44.6627 101.878 44.7198 101.88 44.78V52.72C101.877 52.7793 101.852 52.8352 101.809 52.8762C101.766 52.9172 101.709 52.9401 101.65 52.94H100.53C100.471 52.9401 100.414 52.9172 100.371 52.8762C100.328 52.8352 100.303 52.7793 100.3 52.72V44.78Z" fill="#FFC62C"/>
<path d="M111.75 44.43C112.827 44.444 113.864 44.837 114.68 45.54C114.723 45.5862 114.747 45.6469 114.747 45.71C114.747 45.773 114.723 45.8338 114.68 45.88L113.93 46.66C113.911 46.683 113.888 46.7015 113.861 46.7143C113.834 46.727 113.805 46.7336 113.775 46.7336C113.745 46.7336 113.716 46.727 113.689 46.7143C113.662 46.7015 113.639 46.683 113.62 46.66C113.125 46.2096 112.479 45.96 111.81 45.96C111.085 45.9783 110.396 46.2813 109.893 46.8034C109.39 47.3255 109.112 48.0248 109.12 48.75C109.117 49.4706 109.4 50.163 109.905 50.6763C110.411 51.1896 111.099 51.4821 111.82 51.49C112.312 51.486 112.798 51.3841 113.25 51.19V50.19H112.25C112.221 50.1913 112.192 50.187 112.165 50.1771C112.138 50.1673 112.113 50.1522 112.091 50.1327C112.07 50.1132 112.053 50.0897 112.041 50.0635C112.028 50.0373 112.021 50.0089 112.02 49.98V48.98C112.02 48.919 112.044 48.8605 112.087 48.8174C112.13 48.7742 112.189 48.75 112.25 48.75H114.55C114.609 48.7526 114.665 48.7779 114.706 48.8208C114.747 48.8637 114.77 48.9207 114.77 48.98V52.05C114.772 52.0877 114.764 52.1253 114.746 52.1587C114.729 52.1922 114.702 52.2203 114.67 52.24C113.756 52.7583 112.721 53.0273 111.67 53.02C110.527 53.02 109.431 52.5659 108.622 51.7576C107.814 50.9493 107.36 49.8531 107.36 48.71C107.36 47.5669 107.814 46.4706 108.622 45.6624C109.431 44.8541 110.527 44.4 111.67 44.4" fill="#FFC62C"/>
<path d="M120.57 44.78C120.572 44.7198 120.597 44.6627 120.64 44.6201C120.683 44.5775 120.74 44.5525 120.8 44.55H121.92C121.95 44.55 121.979 44.556 122.007 44.5677C122.034 44.5793 122.059 44.5964 122.079 44.6179C122.1 44.6394 122.116 44.6649 122.126 44.6927C122.137 44.7206 122.141 44.7503 122.14 44.78V47.95H126.05V44.78C126.05 44.719 126.074 44.6605 126.117 44.6174C126.161 44.5742 126.219 44.55 126.28 44.55H127.38C127.44 44.5525 127.497 44.5775 127.54 44.6201C127.583 44.6627 127.608 44.7198 127.61 44.78V52.72C127.607 52.7793 127.582 52.8352 127.539 52.8762C127.496 52.9172 127.439 52.9401 127.38 52.94H126.28C126.25 52.9414 126.221 52.9367 126.193 52.9262C126.165 52.9158 126.139 52.8998 126.118 52.8792C126.096 52.8586 126.079 52.8339 126.068 52.8066C126.056 52.7792 126.05 52.7498 126.05 52.72V49.41H122.14V52.72C122.14 52.7783 122.117 52.8343 122.076 52.8756C122.034 52.9168 121.978 52.94 121.92 52.94H120.8C120.741 52.9401 120.684 52.9172 120.641 52.8762C120.598 52.8352 120.573 52.7793 120.57 52.72V44.78Z" fill="#FFC62C"/>
<path d="M139.93 51.77L140.36 51.03C140.379 50.9953 140.406 50.9651 140.438 50.9414C140.469 50.9177 140.506 50.901 140.545 50.8925C140.583 50.884 140.624 50.8839 140.662 50.892C140.701 50.9002 140.738 50.9166 140.77 50.94C141.3 51.3396 141.923 51.5977 142.58 51.69C142.713 51.7023 142.847 51.6879 142.974 51.6475C143.102 51.6071 143.22 51.5417 143.321 51.455C143.423 51.3683 143.506 51.2621 143.566 51.1428C143.626 51.0234 143.661 50.8933 143.67 50.76C143.67 50.15 143.15 49.76 142.15 49.32C141.15 48.88 139.89 48.15 139.89 46.73C139.9 46.3959 139.979 46.0675 140.124 45.7662C140.269 45.4648 140.475 45.1971 140.729 44.9803C140.984 44.7636 141.281 44.6026 141.601 44.5078C141.922 44.413 142.259 44.3865 142.59 44.43C143.453 44.4462 144.29 44.7253 144.99 45.23C145.05 45.2758 145.09 45.3423 145.103 45.4164C145.116 45.4904 145.101 45.5667 145.06 45.63L144.6 46.31C144.563 46.3847 144.499 46.4422 144.42 46.4702C144.342 46.4982 144.256 46.4946 144.18 46.46C143.686 46.1136 143.117 45.8875 142.52 45.8C142.27 45.7819 142.023 45.8581 141.826 46.0136C141.63 46.1692 141.499 46.3927 141.46 46.64C141.46 47.2 141.91 47.58 142.88 47.98C144.04 48.45 145.38 49.14 145.38 50.69C145.36 51.0279 145.272 51.3584 145.122 51.6618C144.972 51.9652 144.763 52.2355 144.506 52.4565C144.25 52.6775 143.951 52.8447 143.629 52.9484C143.307 53.0521 142.967 53.09 142.63 53.06C141.665 53.0912 140.723 52.7594 139.99 52.13C139.88 52.02 139.82 51.96 139.93 51.77Z" fill="#FFC62C"/>
<path d="M154.62 44.43C155.699 44.3996 156.746 44.7988 157.53 45.54C157.552 45.5623 157.57 45.5888 157.582 45.618C157.594 45.6471 157.601 45.6784 157.601 45.71C157.601 45.7416 157.594 45.7729 157.582 45.802C157.57 45.8312 157.552 45.8577 157.53 45.88L156.8 46.64C156.781 46.6613 156.758 46.6783 156.732 46.69C156.706 46.7017 156.678 46.7077 156.65 46.7077C156.622 46.7077 156.594 46.7017 156.568 46.69C156.542 46.6783 156.519 46.6613 156.5 46.64C155.989 46.1881 155.332 45.936 154.65 45.93C153.913 45.93 153.206 46.2229 152.684 46.7442C152.163 47.2656 151.87 47.9727 151.87 48.71C151.87 49.4473 152.163 50.1544 152.684 50.6758C153.206 51.1971 153.913 51.49 154.65 51.49C155.324 51.4848 155.975 51.2443 156.49 50.81C156.532 50.7741 156.585 50.7544 156.64 50.7544C156.695 50.7544 156.748 50.7741 156.79 50.81L157.53 51.58C157.552 51.6006 157.569 51.6254 157.581 51.6529C157.593 51.6804 157.599 51.71 157.599 51.74C157.599 51.77 157.593 51.7996 157.581 51.8271C157.569 51.8546 157.552 51.8794 157.53 51.9C156.747 52.6553 155.698 53.0721 154.61 53.06C154.026 53.0881 153.442 52.9974 152.894 52.7932C152.346 52.5891 151.845 52.2758 151.422 51.8723C150.999 51.4688 150.662 50.9836 150.431 50.4461C150.201 49.9085 150.082 49.3298 150.082 48.745C150.082 48.1602 150.201 47.5815 150.431 47.0439C150.662 46.5064 150.999 46.0212 151.422 45.6177C151.845 45.2142 152.346 44.9009 152.894 44.6968C153.442 44.4926 154.026 44.4019 154.61 44.43" fill="#FFC62C"/>
<path d="M163.1 44.78C163.102 44.7198 163.127 44.6627 163.17 44.6201C163.213 44.5775 163.27 44.5525 163.33 44.55H164.44C164.501 44.55 164.559 44.5742 164.603 44.6174C164.646 44.6605 164.67 44.719 164.67 44.78V47.95H168.58V44.78C168.58 44.719 168.604 44.6605 168.647 44.6174C168.691 44.5742 168.749 44.55 168.81 44.55H169.91C169.97 44.5525 170.027 44.5775 170.07 44.6201C170.113 44.6627 170.138 44.7198 170.14 44.78V52.72C170.137 52.7793 170.112 52.8352 170.069 52.8762C170.026 52.9172 169.969 52.9401 169.91 52.94H168.81C168.78 52.9414 168.751 52.9367 168.723 52.9262C168.695 52.9158 168.669 52.8998 168.648 52.8792C168.626 52.8586 168.609 52.8339 168.598 52.8066C168.586 52.7792 168.58 52.7498 168.58 52.72V49.41H164.67V52.72C164.67 52.7498 164.664 52.7792 164.652 52.8066C164.641 52.8339 164.624 52.8586 164.602 52.8792C164.581 52.8998 164.555 52.9158 164.527 52.9262C164.499 52.9367 164.47 52.9414 164.44 52.94H163.33C163.271 52.9401 163.214 52.9172 163.171 52.8762C163.128 52.8352 163.103 52.7793 163.1 52.72V44.78Z" fill="#FFC62C"/>
<path d="M180 44.43C180.854 44.428 181.69 44.6795 182.402 45.1525C183.113 45.6255 183.669 46.299 183.997 47.0876C184.326 47.8762 184.414 48.7446 184.249 49.583C184.084 50.4214 183.675 51.1921 183.072 51.7976C182.469 52.4032 181.7 52.8164 180.863 52.985C180.025 53.1536 179.156 53.0701 178.366 52.745C177.576 52.4198 176.9 51.8677 176.424 51.1584C175.947 50.4491 175.692 49.6144 175.69 48.76C175.687 48.1923 175.797 47.6297 176.012 47.1045C176.228 46.5793 176.545 46.1018 176.945 45.6994C177.346 45.2971 177.822 44.9778 178.346 44.76C178.87 44.5421 179.432 44.43 180 44.43ZM180 51.51C180.547 51.512 181.082 51.3515 181.537 51.049C181.993 50.7465 182.348 50.3156 182.558 49.8108C182.768 49.3061 182.824 48.7503 182.717 48.214C182.611 47.6777 182.348 47.185 181.962 46.7984C181.575 46.4118 181.082 46.1487 180.546 46.0426C180.01 45.9364 179.454 45.9919 178.949 46.202C178.444 46.4122 178.013 46.7675 177.711 47.2229C177.408 47.6783 177.248 48.2133 177.25 48.76C177.253 49.4885 177.543 50.1865 178.058 50.7016C178.574 51.2168 179.271 51.5074 180 51.51Z" fill="#FFC62C"/>
<path d="M193.6 44.43C194.454 44.428 195.29 44.6795 196.002 45.1525C196.713 45.6255 197.269 46.299 197.597 47.0876C197.926 47.8762 198.014 48.7446 197.849 49.583C197.684 50.4214 197.275 51.1921 196.672 51.7976C196.069 52.4032 195.3 52.8164 194.463 52.985C193.625 53.1536 192.756 53.0701 191.966 52.745C191.176 52.4198 190.5 51.8677 190.024 51.1584C189.547 50.4491 189.292 49.6144 189.29 48.76C189.287 48.1923 189.397 47.6297 189.612 47.1045C189.828 46.5793 190.145 46.1018 190.545 45.6994C190.946 45.2971 191.422 44.9778 191.946 44.76C192.47 44.5421 193.032 44.43 193.6 44.43ZM193.6 51.51C194.147 51.512 194.682 51.3515 195.137 51.049C195.593 50.7465 195.948 50.3156 196.158 49.8108C196.368 49.3061 196.424 48.7503 196.317 48.214C196.211 47.6777 195.948 47.185 195.562 46.7984C195.175 46.4118 194.682 46.1487 194.146 46.0426C193.61 45.9364 193.054 45.9919 192.549 46.202C192.044 46.4122 191.613 46.7675 191.311 47.2229C191.008 47.6783 190.848 48.2133 190.85 48.76C190.855 49.4877 191.147 50.1842 191.661 50.6988C192.176 51.2134 192.872 51.5048 193.6 51.51Z" fill="#FFC62C"/>
<path d="M203.48 44.78C203.48 44.719 203.504 44.6605 203.547 44.6174C203.59 44.5742 203.649 44.55 203.71 44.55H204.81C204.87 44.5525 204.927 44.5775 204.97 44.6201C205.013 44.6627 205.038 44.7198 205.04 44.78V51.51H208.1C208.158 51.51 208.214 51.5332 208.256 51.5744C208.297 51.6157 208.32 51.6717 208.32 51.73V52.73C208.32 52.7884 208.297 52.8443 208.256 52.8856C208.214 52.9268 208.158 52.95 208.1 52.95H203.71C203.68 52.9514 203.651 52.9467 203.623 52.9362C203.595 52.9258 203.569 52.9098 203.548 52.8892C203.526 52.8686 203.509 52.8439 203.498 52.8166C203.486 52.7892 203.48 52.7598 203.48 52.73V44.78Z" fill="#FFC62C"/>
<path d="M220.16 44.78C220.16 44.719 220.184 44.6605 220.227 44.6174C220.271 44.5742 220.329 44.55 220.39 44.55H223.82C224.161 44.5474 224.499 44.6121 224.815 44.7404C225.131 44.8688 225.418 45.0583 225.661 45.298C225.903 45.5377 226.096 45.8229 226.228 46.1373C226.36 46.4517 226.429 46.789 226.43 47.13C226.414 47.6665 226.236 48.1855 225.918 48.6179C225.6 49.0502 225.158 49.3754 224.65 49.55L226.3 52.55C226.322 52.5843 226.335 52.6242 226.336 52.6653C226.337 52.7063 226.326 52.7468 226.306 52.7821C226.285 52.8175 226.255 52.8463 226.218 52.8654C226.182 52.8845 226.141 52.893 226.1 52.89H224.84C224.801 52.8908 224.762 52.8821 224.728 52.8647C224.693 52.8473 224.663 52.8217 224.64 52.79L223.05 49.61H221.72V52.67C221.717 52.7293 221.692 52.7852 221.649 52.8262C221.606 52.8672 221.549 52.8901 221.49 52.89H220.39C220.36 52.8914 220.331 52.8867 220.303 52.8762C220.275 52.8658 220.249 52.8498 220.228 52.8292C220.206 52.8086 220.189 52.7839 220.178 52.7566C220.166 52.7292 220.16 52.6998 220.16 52.67V44.78ZM223.68 48.35C223.998 48.3422 224.301 48.2102 224.523 47.9822C224.746 47.7543 224.87 47.4484 224.87 47.13C224.862 46.8196 224.733 46.5246 224.511 46.3079C224.289 46.0912 223.99 45.9699 223.68 45.97H221.68V48.35H223.68Z" fill="#FFC62C"/>
<path d="M232.13 44.78C232.13 44.719 232.154 44.6605 232.197 44.6174C232.241 44.5742 232.299 44.55 232.36 44.55H237.24C237.301 44.55 237.36 44.5742 237.403 44.6174C237.446 44.6605 237.47 44.719 237.47 44.78V45.78C237.47 45.841 237.446 45.8995 237.403 45.9426C237.36 45.9858 237.301 46.01 237.24 46.01H233.69V48.01H236.69C236.748 48.0148 236.803 48.0409 236.844 48.0833C236.884 48.1257 236.908 48.1814 236.91 48.24V49.24C236.91 49.2993 236.887 49.3563 236.846 49.3992C236.805 49.4421 236.749 49.4674 236.69 49.47H233.69V51.57H237.24C237.27 51.5687 237.299 51.5733 237.327 51.5838C237.355 51.5942 237.381 51.6102 237.402 51.6308C237.424 51.6514 237.441 51.6761 237.452 51.7034C237.464 51.7308 237.47 51.7602 237.47 51.79V52.79C237.47 52.8198 237.464 52.8492 237.452 52.8766C237.441 52.9039 237.424 52.9286 237.402 52.9492C237.381 52.9698 237.355 52.9858 237.327 52.9962C237.299 53.0067 237.27 53.0114 237.24 53.01H232.36C232.33 53.0114 232.301 53.0067 232.273 52.9962C232.245 52.9858 232.219 52.9698 232.198 52.9492C232.176 52.9286 232.159 52.9039 232.148 52.8766C232.136 52.8492 232.13 52.8198 232.13 52.79V44.78Z" fill="#FFC62C"/>
<path d="M242.08 44.86C242.061 44.8261 242.052 44.7876 242.054 44.7489C242.056 44.7102 242.068 44.6727 242.09 44.6406C242.112 44.6085 242.142 44.583 242.177 44.567C242.213 44.5511 242.252 44.5452 242.29 44.55H243.51C243.553 44.5488 243.595 44.5606 243.63 44.5838C243.666 44.6071 243.694 44.6406 243.71 44.68L246 49.84H246.08L248.38 44.68C248.399 44.6406 248.429 44.6074 248.466 44.5844C248.503 44.5614 248.546 44.5495 248.59 44.55H249.81C249.848 44.5472 249.885 44.5546 249.919 44.5714C249.953 44.5882 249.982 44.6138 250.002 44.6456C250.023 44.6773 250.034 44.714 250.036 44.7517C250.037 44.7894 250.028 44.8268 250.01 44.86L246.3 52.93C246.281 52.9694 246.251 53.0026 246.214 53.0256C246.177 53.0486 246.134 53.0605 246.09 53.06H246C245.957 53.0627 245.915 53.0515 245.879 53.0281C245.842 53.0047 245.815 52.9703 245.8 52.93L242.09 44.86" fill="#FFC62C"/>
<path d="M258.76 44.43C259.615 44.426 260.452 44.6758 261.164 45.1476C261.877 45.6195 262.434 46.2922 262.764 47.0806C263.095 47.869 263.184 48.7378 263.02 49.5768C262.856 50.4158 262.448 51.1875 261.845 51.794C261.243 52.4006 260.474 52.8148 259.636 52.9842C258.798 53.1537 257.929 53.0707 257.138 52.7459C256.348 52.4211 255.671 51.8689 255.194 51.1594C254.718 50.4499 254.462 49.6148 254.46 48.76C254.457 48.1932 254.567 47.6314 254.781 47.1068C254.996 46.5822 255.312 46.1052 255.712 45.703C256.111 45.3008 256.586 44.9813 257.109 44.7629C257.632 44.5444 258.193 44.4313 258.76 44.43ZM258.76 51.51C259.306 51.51 259.84 51.3479 260.294 51.0442C260.748 50.7404 261.102 50.3088 261.311 49.8039C261.519 49.299 261.574 48.7435 261.466 48.2079C261.359 47.6722 261.095 47.1804 260.708 46.7948C260.321 46.4093 259.828 46.1472 259.292 46.0418C258.756 45.9365 258.201 45.9925 257.697 46.203C257.193 46.4134 256.762 46.7687 256.46 47.2239C256.158 47.6791 255.998 48.2137 256 48.76C256.005 49.4894 256.298 50.1874 256.815 50.7023C257.332 51.2171 258.031 51.5074 258.76 51.51Z" fill="#FFC62C"/>
<path d="M268.64 44.78C268.64 44.719 268.664 44.6605 268.707 44.6174C268.751 44.5742 268.809 44.55 268.87 44.55H270C270.06 44.5525 270.117 44.5775 270.16 44.6201C270.203 44.6627 270.228 44.7198 270.23 44.78V51.51H273.29C273.348 51.51 273.404 51.5332 273.446 51.5744C273.487 51.6157 273.51 51.6717 273.51 51.73V52.73C273.51 52.7884 273.487 52.8443 273.446 52.8856C273.404 52.9268 273.348 52.95 273.29 52.95H268.9C268.87 52.9514 268.841 52.9467 268.813 52.9362C268.785 52.9258 268.759 52.9098 268.738 52.8892C268.716 52.8686 268.699 52.8439 268.688 52.8166C268.676 52.7892 268.67 52.7598 268.67 52.73V44.78" fill="#FFC62C"/>
<path d="M278.44 44.78C278.442 44.7198 278.467 44.6627 278.51 44.6201C278.553 44.5775 278.61 44.5525 278.67 44.55H279.81C279.871 44.55 279.929 44.5742 279.973 44.6174C280.016 44.6605 280.04 44.719 280.04 44.78V49.68C280.022 49.9203 280.053 50.1617 280.133 50.3892C280.212 50.6167 280.338 50.8253 280.502 51.002C280.665 51.1787 280.864 51.3196 281.085 51.416C281.306 51.5124 281.544 51.5622 281.785 51.5622C282.026 51.5622 282.264 51.5124 282.485 51.416C282.706 51.3196 282.905 51.1787 283.068 51.002C283.232 50.8253 283.358 50.6167 283.437 50.3892C283.517 50.1617 283.548 49.9203 283.53 49.68V44.78C283.529 44.7503 283.533 44.7206 283.544 44.6927C283.554 44.6649 283.57 44.6394 283.591 44.6179C283.611 44.5964 283.636 44.5793 283.663 44.5677C283.691 44.556 283.72 44.55 283.75 44.55H284.89C284.95 44.5525 285.007 44.5775 285.05 44.6201C285.093 44.6627 285.118 44.7198 285.12 44.78V49.78C285.12 50.6658 284.768 51.5154 284.142 52.1417C283.515 52.7681 282.666 53.12 281.78 53.12C280.894 53.12 280.045 52.7681 279.418 52.1417C278.792 51.5154 278.44 50.6658 278.44 49.78V44.78Z" fill="#FFC62C"/>
<path d="M292.3 45.99H290.47C290.409 45.99 290.351 45.9658 290.307 45.9226C290.264 45.8795 290.24 45.821 290.24 45.76V44.76C290.24 44.699 290.264 44.6405 290.307 44.5974C290.351 44.5542 290.409 44.53 290.47 44.53H295.71C295.74 44.53 295.769 44.536 295.797 44.5476C295.824 44.5593 295.849 44.5764 295.869 44.5979C295.89 44.6194 295.906 44.6449 295.916 44.6727C295.927 44.7006 295.931 44.7303 295.93 44.76V45.76C295.931 45.7897 295.927 45.8194 295.916 45.8473C295.906 45.8751 295.89 45.9006 295.869 45.9221C295.849 45.9436 295.824 45.9607 295.797 45.9723C295.769 45.984 295.74 45.99 295.71 45.99H293.87V52.72C293.867 52.7792 293.842 52.8352 293.799 52.8762C293.756 52.9172 293.699 52.9401 293.64 52.94H292.53C292.471 52.9401 292.414 52.9172 292.371 52.8762C292.328 52.8352 292.303 52.7792 292.3 52.72V45.99Z" fill="#FFC62C"/>
<path d="M301.17 44.78C301.172 44.7198 301.197 44.6627 301.24 44.6201C301.283 44.5775 301.34 44.5525 301.4 44.55H302.51C302.57 44.5525 302.627 44.5775 302.67 44.6201C302.713 44.6627 302.738 44.7198 302.74 44.78V52.72C302.737 52.7793 302.712 52.8352 302.669 52.8762C302.626 52.9172 302.569 52.9401 302.51 52.94H301.4C301.341 52.9401 301.284 52.9172 301.241 52.8762C301.198 52.8352 301.173 52.7793 301.17 52.72V44.78Z" fill="#FFC62C"/>
<path d="M312.61 44.43C313.465 44.426 314.302 44.6758 315.014 45.1476C315.727 45.6195 316.284 46.2922 316.614 47.0806C316.945 47.869 317.034 48.7378 316.87 49.5768C316.706 50.4158 316.298 51.1875 315.695 51.794C315.093 52.4006 314.324 52.8148 313.486 52.9842C312.648 53.1537 311.779 53.0707 310.988 52.7459C310.198 52.4211 309.521 51.8689 309.044 51.1594C308.568 50.4499 308.312 49.6148 308.31 48.76C308.307 48.1932 308.417 47.6314 308.631 47.1068C308.846 46.5822 309.162 46.1052 309.562 45.703C309.961 45.3008 310.436 44.9813 310.959 44.7629C311.482 44.5444 312.043 44.4313 312.61 44.43ZM312.61 51.51C313.157 51.514 313.693 51.3552 314.15 51.0539C314.607 50.7526 314.963 50.3224 315.175 49.8178C315.387 49.3133 315.444 48.7572 315.339 48.2202C315.234 47.6832 314.971 47.1896 314.585 46.802C314.199 46.4144 313.706 46.1503 313.17 46.0434C312.633 45.9364 312.077 45.9913 311.571 46.2011C311.066 46.4109 310.635 46.7662 310.332 47.2218C310.029 47.6775 309.868 48.2129 309.87 48.76C309.873 49.4868 310.162 50.1833 310.675 50.6981C311.188 51.213 311.883 51.5047 312.61 51.51Z" fill="#FFC62C"/>
<path d="M322.49 44.64C322.495 44.5825 322.521 44.529 322.564 44.4901C322.607 44.4513 322.662 44.4298 322.72 44.43H323.02L328.02 49.73V44.73C328.02 44.669 328.044 44.6105 328.087 44.5674C328.131 44.5242 328.189 44.5 328.25 44.5H329.35C329.41 44.5025 329.467 44.5275 329.51 44.5701C329.553 44.6127 329.578 44.6698 329.58 44.73V52.85C329.579 52.8789 329.572 52.9073 329.559 52.9335C329.547 52.9597 329.53 52.9832 329.509 53.0027C329.487 53.0222 329.462 53.0373 329.435 53.0471C329.408 53.057 329.379 53.0613 329.35 53.06H329.07L324.07 47.56V52.72C324.07 52.7498 324.064 52.7792 324.052 52.8066C324.041 52.8339 324.024 52.8586 324.002 52.8792C323.981 52.8998 323.955 52.9158 323.927 52.9262C323.899 52.9367 323.87 52.9414 323.84 52.94H322.75C322.691 52.9401 322.634 52.9172 322.591 52.8762C322.548 52.8352 322.523 52.7792 322.52 52.72V44.64" fill="#FFC62C"/>
<path d="M335.75 44.78C335.752 44.7198 335.777 44.6627 335.82 44.6201C335.863 44.5775 335.92 44.5525 335.98 44.55H337.1C337.159 44.5526 337.215 44.5779 337.256 44.6208C337.297 44.6637 337.32 44.7207 337.32 44.78V52.72C337.32 52.7783 337.297 52.8343 337.256 52.8756C337.214 52.9168 337.158 52.94 337.1 52.94H336C335.941 52.9401 335.884 52.9172 335.841 52.8762C335.798 52.8352 335.773 52.7793 335.77 52.72V44.78" fill="#FFC62C"/>
<path d="M342.7 52.5L346.27 46.05V46H343.27C343.21 45.9975 343.153 45.9725 343.11 45.9299C343.067 45.8873 343.042 45.8302 343.04 45.77V44.77C343.042 44.7098 343.067 44.6527 343.11 44.6101C343.153 44.5675 343.21 44.5425 343.27 44.54H348.27C348.33 44.5425 348.387 44.5675 348.43 44.6101C348.473 44.6527 348.498 44.7098 348.5 44.77V44.92L345 51.47H348.06C348.121 51.47 348.179 51.4942 348.223 51.5374C348.266 51.5805 348.29 51.639 348.29 51.7V52.7C348.29 52.7297 348.284 52.7592 348.272 52.7866C348.261 52.8139 348.244 52.8386 348.222 52.8592C348.201 52.8798 348.175 52.8958 348.147 52.9062C348.119 52.9167 348.09 52.9213 348.06 52.92H342.94C342.881 52.9201 342.824 52.8972 342.781 52.8562C342.738 52.8152 342.713 52.7592 342.71 52.7V52.48" fill="#FFC62C"/>
<path d="M353.93 44.78C353.93 44.719 353.954 44.6605 353.997 44.6174C354.041 44.5742 354.099 44.55 354.16 44.55H359C359.061 44.55 359.119 44.5742 359.163 44.6174C359.206 44.6605 359.23 44.719 359.23 44.78V45.78C359.23 45.841 359.206 45.8995 359.163 45.9426C359.119 45.9858 359.061 46.01 359 46.01H355.45V48.01H358.45C358.51 48.0125 358.567 48.0375 358.61 48.0801C358.653 48.1227 358.678 48.1798 358.68 48.24V49.24C358.68 49.301 358.656 49.3595 358.613 49.4026C358.57 49.4458 358.511 49.47 358.45 49.47H355.45V51.57H359C359.03 51.5687 359.059 51.5733 359.087 51.5838C359.115 51.5942 359.141 51.6102 359.162 51.6308C359.184 51.6514 359.201 51.6761 359.212 51.7034C359.224 51.7308 359.23 51.7602 359.23 51.79V52.79C359.23 52.8198 359.224 52.8492 359.212 52.8766C359.201 52.9039 359.184 52.9286 359.162 52.9492C359.141 52.9698 359.115 52.9858 359.087 52.9962C359.059 53.0067 359.03 53.0114 359 53.01H354.12C354.09 53.0114 354.061 53.0067 354.033 52.9962C354.005 52.9858 353.979 52.9698 353.958 52.9492C353.936 52.9286 353.919 52.9039 353.908 52.8766C353.896 52.8492 353.89 52.8198 353.89 52.79V44.78" fill="#FFC62C"/>
<path d="M365 44.78C365 44.7207 365.023 44.6637 365.064 44.6208C365.105 44.5779 365.161 44.5526 365.22 44.55H368C368.568 44.5223 369.136 44.6102 369.669 44.8085C370.202 45.0068 370.689 45.3113 371.101 45.7036C371.513 46.0958 371.841 46.5677 372.065 47.0905C372.289 47.6133 372.405 48.1762 372.405 48.745C372.405 49.3138 372.289 49.8767 372.065 50.3995C371.841 50.9223 371.513 51.3941 371.101 51.7864C370.689 52.1787 370.202 52.4832 369.669 52.6815C369.136 52.8798 368.568 52.9677 368 52.94H365.16C365.102 52.94 365.046 52.9168 365.004 52.8756C364.963 52.8343 364.94 52.7783 364.94 52.72V44.78H365ZM367.86 51.48C368.587 51.48 369.284 51.1913 369.797 50.6775C370.311 50.1636 370.6 49.4667 370.6 48.74C370.6 48.0133 370.311 47.3164 369.797 46.8025C369.284 46.2887 368.587 46 367.86 46H366.49V51.48H367.86Z" fill="#FFC62C"/>
</g>
<defs>
<clipPath id="clip0">
<rect width="374.98" height="57.35" fill="none"/>
</clipPath>
</defs>
</svg>
